<?xml version="1.0" standalone="no"?>
<!DOCTYPE svg PUBLIC "-//W3C//DTD SVG 20010904//EN"
 "http://www.w3.org/TR/2001/REC-SVG-20010904/DTD/svg10.dtd">
<svg version="1.0" xmlns="http://www.w3.org/2000/svg"
 width="451.000000pt" height="566.000000pt" viewBox="0 0 451.000000 566.000000"
 preserveAspectRatio="xMidYMid meet">

<g transform="translate(0.000000,566.000000) scale(0.100000,-0.100000)"
fill="#000000" stroke="none">
<path d="M2198 5609 c-147 -123 -358 -208 -594 -240 -115 -15 -394 -6 -494 16
-41 9 -108 28 -148 41 l-73 25 -57 -50 c-247 -214 -566 -614 -746 -938 l-57
-102 40 -54 c57 -75 128 -230 157 -344 65 -251 39 -507 -111 -1113 -93 -374
-108 -474 -108 -710 0 -216 11 -310 54 -478 144 -558 587 -1030 1188 -1266
113 -45 220 -74 444 -120 282 -59 397 -108 506 -218 l57 -57 60 60 c109 110
236 161 583 234 220 46 349 89 526 174 587 284 970 779 1067 1376 7 47 13 165
13 290 -1 255 -10 321 -105 703 -117 474 -144 635 -143 857 0 119 4 168 21
238 35 143 111 308 184 399 l21 27 -33 63 c-140 264 -364 567 -601 813 -72 74
-153 153 -179 175 l-48 40 -89 -29 c-129 -43 -255 -61 -422 -61 -343 0 -603
84 -816 264 l-40 34 -57 -49z m297 -175 c191 -91 370 -128 620 -128 171 1 285
17 424 60 l74 23 72 -65 c224 -200 504 -553 679 -858 l57 -99 -31 -43 c-52
-72 -127 -243 -155 -349 -66 -254 -38 -544 109 -1132 74 -294 94 -401 106
-556 42 -538 -118 -988 -484 -1366 -206 -212 -463 -379 -746 -484 -114 -42
-164 -56 -386 -102 -93 -20 -198 -44 -234 -55 -98 -29 -218 -91 -285 -147
l-61 -50 -53 48 c-99 88 -231 141 -491 195 -315 66 -428 103 -632 205 -370
185 -672 480 -843 824 -73 146 -113 260 -147 415 -20 94 -22 133 -23 360 0
291 2 306 105 720 107 430 140 632 140 844 0 229 -64 447 -183 623 l-35 52 57
98 c181 313 421 617 675 854 l75 70 82 -26 c138 -43 249 -59 424 -58 182 0
306 18 455 65 115 36 265 112 340 171 l54 43 66 -50 c36 -27 115 -73 175 -102z"/>
<path d="M1970 4943 c-380 -26 -691 -92 -1025 -214 -81 -30 -118 -49 -142 -75
-33 -33 -33 -35 -33 -132 l0 -98 -102 -52 c-57 -29 -147 -76 -200 -105 l-97
-52 108 -118 108 -118 -34 -165 c-19 -92 -33 -168 -31 -170 2 -2 38 14 79 36
97 51 330 153 399 175 30 10 60 22 67 27 8 7 13 50 15 126 l3 116 60 18 c99
30 285 75 375 92 480 86 1058 83 1520 -10 120 -24 307 -72 363 -93 l27 -11 0
-115 0 -115 33 -14 c17 -8 77 -31 132 -52 55 -22 167 -72 249 -112 l149 -72
-7 50 c-4 28 -18 101 -32 162 -14 61 -24 117 -22 124 2 7 50 63 107 124 57 61
102 112 100 114 -10 9 -196 109 -287 155 l-100 50 -4 106 c-3 105 -4 107 -34
134 -18 16 -83 47 -155 74 -311 114 -614 179 -973 207 -117 9 -504 11 -616 3z
m408 -123 c1 -9 -12 -24 -29 -34 -31 -18 -33 -18 -66 -1 -19 11 -33 26 -33 37
0 17 7 19 62 16 47 -2 64 -7 66 -18z m-378 -161 l0 -171 93 3 92 4 3 -41 3
-42 -78 -6 c-43 -3 -112 -7 -153 -8 l-75 -3 -3 212 -2 212 47 4 c27 2 54 4 61
5 9 2 12 -38 12 -169z m792 145 l58 -17 0 -42 c0 -23 -3 -44 -6 -47 -3 -4 -24
2 -47 13 -24 10 -65 19 -94 19 -44 0 -58 -5 -85 -29 -30 -27 -33 -34 -33 -89
0 -51 4 -65 25 -87 43 -46 78 -58 162 -57 l78 1 0 -45 0 -44 -85 0 c-194 0
-315 93 -315 242 0 94 42 156 125 186 46 16 152 14 217 -4z m-1062 -36 c59
-31 83 -78 83 -166 -1 -156 -99 -251 -268 -260 -71 -3 -84 -1 -114 20 -56 37
-76 82 -76 163 1 125 61 207 180 245 82 26 141 25 195 -2z m618 -4 l32 17 0
-186 0 -185 -65 0 -65 0 0 185 0 185 33 -16 c31 -15 36 -15 65 0z m665 0 l27
-6 0 -214 0 -214 -22 5 c-13 3 -41 9 -63 13 l-40 8 -3 213 -2 213 37 -6 c21
-4 50 -9 66 -12z m352 -89 l50 -15 83 -230 c46 -127 82 -233 80 -235 -2 -2
-31 3 -65 12 -61 17 -62 18 -80 67 -17 48 -20 51 -74 67 -111 32 -104 33 -124
-11 -13 -28 -23 -39 -34 -36 -9 3 -35 10 -58 16 -24 6 -43 15 -43 21 0 5 37
91 81 190 92 203 72 186 184 154z m-2078 -17 c18 -17 23 -32 23 -70 0 -99 -65
-163 -207 -204 -9 -2 -13 -27 -13 -77 l0 -74 -42 -12 c-24 -7 -51 -15 -60 -17
-17 -5 -18 10 -18 209 l0 214 98 26 c53 15 106 29 117 31 35 8 78 -4 102 -26z"/>
<path d="M1554 4685 c-45 -23 -68 -70 -69 -137 0 -70 26 -111 73 -116 41 -4
88 21 107 58 21 41 20 148 -3 177 -23 30 -69 37 -108 18z"/>
<path d="M3312 4525 c-12 -31 -22 -63 -22 -70 0 -12 80 -39 89 -30 4 5 -27
122 -38 143 -5 9 -15 -7 -29 -43z"/>
<path d="M1108 4583 c-14 -4 -18 -16 -18 -60 l0 -55 28 7 c43 11 73 45 70 80
-3 26 -7 30 -33 32 -16 0 -38 -1 -47 -4z"/>
<path d="M2119 3747 c-75 -139 -136 -253 -135 -254 2 -2 30 8 64 22 33 13 92
30 131 36 l71 12 0 175 c0 105 4 172 9 167 5 -6 53 -95 107 -198 76 -147 105
-192 127 -204 16 -8 30 -13 32 -11 2 2 -53 107 -122 233 -68 127 -130 240
-136 252 -11 20 -24 -1 -148 -230z"/>
<path d="M2523 3923 c-20 -20 -21 -27 -10 -46 6 -12 18 -26 25 -30 12 -8 17
-47 6 -47 -22 0 -98 71 -111 102 -8 21 -16 38 -18 38 -1 0 -15 -5 -31 -10 -29
-10 -31 -16 -25 -72 1 -5 10 -8 21 -8 21 0 28 -16 9 -22 -22 -7 24 -63 54 -65
15 -1 27 3 27 10 0 8 3 8 9 -1 4 -8 11 -13 15 -13 23 3 28 -1 24 -24 -5 -24 5
-34 16 -16 4 5 24 4 48 -2 40 -10 41 -11 18 -18 -14 -4 -42 -7 -62 -8 -21 -1
-38 -6 -38 -12 0 -5 4 -8 9 -4 6 3 15 -4 22 -16 9 -17 8 -23 -2 -30 -8 -5 -20
-7 -26 -4 -15 5 -18 -11 -4 -19 15 -10 61 18 56 33 -15 39 82 42 140 5 l40
-25 -45 7 c-55 8 -91 7 -102 -4 -9 -9 73 -101 107 -121 17 -11 15 -12 -17 -7
-29 4 -38 1 -38 -10 0 -34 20 -52 66 -59 25 -3 54 -8 64 -10 9 -2 35 -6 56 -9
55 -9 202 -35 247 -45 20 -5 37 -8 37 -6 0 1 -7 22 -15 45 -8 23 -15 54 -15
67 0 14 -8 37 -19 51 -10 15 -26 44 -34 65 -17 39 -34 47 -44 21 -5 -14 -8
-12 -19 7 -7 13 -16 44 -20 69 -4 26 -18 58 -33 76 -14 17 -34 45 -43 63 -23
42 -38 39 -38 -9 0 -38 -1 -40 -20 -30 -11 6 -33 29 -49 50 l-29 40 -12 -31
c-9 -22 -10 -43 -4 -72 11 -48 7 -90 -7 -81 -15 9 -40 77 -31 83 5 3 11 20 14
36 5 27 2 32 -28 46 -19 9 -34 13 -34 8 0 -4 -9 -17 -20 -27 -18 -17 -19 -20
-5 -32 8 -7 15 -19 15 -26 0 -8 5 -13 11 -11 6 1 14 -4 16 -10 9 -25 -16 -12
-40 20 -25 34 -41 77 -27 77 4 0 10 8 13 18 2 9 8 25 12 35 5 12 2 17 -11 17
-9 0 -25 6 -33 13 -14 11 -19 10 -38 -10z m62 -31 c-3 -8 -5 -17 -5 -20 0 -4
-11 -8 -25 -8 -28 -2 -43 28 -24 49 16 17 62 -1 54 -21z m-165 13 c15 -18 -2
-45 -30 -45 -23 0 -28 7 -22 35 5 28 33 33 52 10z m260 -102 c0 -17 -6 -23
-21 -23 -30 0 -50 29 -36 51 15 24 57 4 57 -28z m-220 12 c15 -18 5 -35 -23
-35 -26 0 -54 36 -34 43 23 10 45 7 57 -8z"/>
<path d="M2385 3890 c-3 -5 -1 -10 4 -10 6 0 11 5 11 10 0 6 -2 10 -4 10 -3 0
-8 -4 -11 -10z"/>
<path d="M2635 3810 c4 -6 11 -8 16 -5 14 9 11 15 -7 15 -8 0 -12 -5 -9 -10z"/>
<path d="M1975 3914 c-35 -15 -87 -67 -109 -108 -8 -16 -29 -35 -45 -42 l-31
-13 0 39 c0 21 -5 42 -10 45 -6 3 -32 -15 -58 -42 -46 -46 -72 -102 -72 -152
0 -23 -19 -28 -38 -9 -9 9 -19 5 -45 -20 -30 -29 -33 -30 -44 -14 -10 15 -13
15 -26 2 -9 -8 -31 -41 -50 -72 -31 -51 -35 -55 -49 -41 -15 14 -18 13 -34
-12 -15 -23 -48 -125 -41 -131 3 -2 163 23 185 30 9 3 40 8 67 11 28 4 58 8
67 11 23 7 45 11 104 19 45 6 53 10 57 31 4 24 2 25 -36 22 -38 -2 -40 -1 -41
25 -2 26 0 27 51 27 59 0 105 16 142 49 23 20 23 22 6 41 -16 18 -16 21 -2 44
9 14 30 26 50 30 38 7 117 59 117 77 0 6 -9 13 -20 16 -22 6 -25 14 -11 29 4
5 13 24 19 43 l12 33 -35 -4 c-31 -3 -35 -1 -35 18 0 30 -9 34 -45 18z m-343
-426 c-9 -9 -12 -7 -12 12 0 19 3 21 12 12 9 -9 9 -15 0 -24z"/>
<path d="M2461 3746 c-9 -10 -8 -16 4 -26 9 -8 15 -25 15 -39 -3 -42 2 -49 9
-11 4 22 2 40 -6 48 -7 7 -10 19 -7 27 8 19 0 19 -15 1z"/>
<path d="M2490 3739 c0 -5 5 -7 10 -4 6 3 10 8 10 11 0 2 -4 4 -10 4 -5 0 -10
-5 -10 -11z"/>
<path d="M2160 3519 c-30 -5 -91 -27 -135 -48 -183 -90 -295 -269 -295 -471 0
-203 110 -380 293 -470 158 -78 311 -77 469 2 388 194 385 747 -5 938 -113 55
-204 69 -327 49z m129 -67 c-5 -2 -9 -12 -9 -21 0 -12 -7 -17 -22 -17 -29 1
-40 35 -20 58 14 16 16 16 37 0 13 -9 19 -18 14 -20z m-104 -19 c0 -12 -5 -23
-12 -23 -6 0 -18 -3 -27 -6 -11 -4 -16 -1 -16 10 0 9 -5 16 -10 16 -6 0 -3 10
7 23 13 19 21 21 37 14 13 -6 21 -20 21 -34z m204 -1 c-5 -2 -9 -11 -9 -19 0
-10 -6 -13 -16 -9 -9 3 -21 6 -28 6 -20 0 -13 44 9 55 16 9 23 7 37 -10 9 -11
12 -21 7 -23z m-316 -2 c7 0 13 -11 13 -25 1 -15 -4 -25 -11 -25 -7 0 -15 -5
-17 -12 -3 -8 -11 -5 -24 8 -15 15 -17 24 -9 42 6 12 16 20 23 17 8 -3 19 -5
25 -5z m412 -12 c8 -18 6 -27 -9 -42 -13 -13 -21 -16 -24 -8 -2 7 -10 12 -18
12 -21 0 -12 44 11 52 11 3 22 6 25 7 3 1 10 -9 15 -21z m-95 -52 c98 -35 191
-129 230 -233 18 -47 21 -74 18 -148 -3 -78 -7 -100 -36 -157 -56 -114 -158
-189 -286 -211 -166 -28 -333 58 -408 211 -31 62 -33 73 -33 172 0 99 2 110
33 172 69 141 211 223 367 214 39 -3 90 -12 115 -20z m-395 -11 c8 -15 7 -24
-5 -35 -22 -23 -59 1 -53 33 6 29 44 31 58 2z m575 0 c4 -13 -1 -26 -14 -36
-18 -14 -21 -14 -35 0 -12 12 -14 21 -7 37 12 26 49 26 56 -1z m-649 -106
c-11 -12 -21 -16 -25 -10 -4 5 -13 8 -20 5 -9 -4 -13 4 -12 26 1 19 5 29 13
26 7 -3 15 0 19 5 4 6 14 2 25 -10 20 -21 20 -21 0 -42z m713 47 c6 2 11 -8
12 -25 1 -20 -3 -28 -11 -24 -7 2 -16 -1 -20 -7 -5 -8 -13 -5 -26 9 -18 19
-18 21 -2 41 10 12 21 16 26 11 5 -5 15 -8 21 -5z m-762 -96 c12 -11 16 -20
10 -20 -7 0 -12 -10 -12 -22 0 -16 -3 -19 -11 -11 -6 6 -18 9 -25 6 -8 -3 -14
-1 -14 5 0 6 -3 17 -6 26 -4 11 -1 16 10 16 9 0 16 5 16 10 0 15 8 12 32 -10z
m813 6 c17 -9 22 -16 15 -21 -6 -4 -9 -13 -6 -20 3 -8 -6 -14 -25 -17 -23 -4
-29 -1 -29 14 0 10 -5 18 -12 18 -8 0 16 34 28 39 1 1 14 -5 29 -13z m-854
-99 c8 -7 15 -21 15 -33 0 -16 -7 -21 -27 -21 -31 0 -46 30 -26 53 15 16 18
16 38 1z m891 -7 c12 -11 16 -20 10 -20 -7 0 -12 -10 -12 -21 0 -17 -3 -19
-14 -10 -7 6 -20 9 -28 6 -20 -8 -18 36 2 52 19 16 17 16 42 -7z m-894 -96 c5
3 9 -8 10 -25 0 -16 -3 -27 -8 -24 -5 3 -11 1 -15 -5 -9 -15 -25 -12 -25 4 0
8 -6 17 -12 20 -10 5 -10 7 0 12 6 3 12 13 12 21 0 12 3 13 15 3 8 -6 18 -9
23 -6z m906 -17 c8 -6 7 -10 -1 -14 -7 -2 -13 -11 -13 -19 0 -16 -16 -19 -25
-4 -4 6 -10 8 -15 5 -5 -3 -8 8 -8 25 1 21 5 29 14 26 7 -3 17 0 21 6 5 9 8 8
11 -2 3 -8 10 -19 16 -23z m-878 -101 c7 -17 5 -23 -16 -34 -16 -9 -26 -10
-28 -3 -2 6 -10 11 -17 11 -10 0 -11 5 -2 24 14 30 50 31 63 2z m861 -2 c9
-19 8 -24 -3 -24 -8 0 -14 -4 -14 -10 0 -13 -11 -12 -32 4 -10 8 -15 20 -12
33 8 29 47 27 61 -3z m-825 -112 c-7 -2 -12 -10 -12 -18 0 -8 -4 -14 -10 -14
-5 0 -10 5 -10 10 0 6 -10 10 -21 10 -18 0 -19 3 -9 15 6 8 9 18 6 24 -4 5 4
11 16 13 25 4 61 -33 40 -40z m784 23 c-2 -7 1 -18 7 -24 8 -8 5 -11 -11 -11
-12 0 -22 -4 -22 -10 0 -5 -4 -10 -10 -10 -5 0 -10 6 -10 14 0 8 -5 16 -11 18
-9 3 -8 10 1 24 14 23 65 22 56 -1z m-736 -70 c0 -8 7 -15 15 -15 14 0 14 -3
-2 -23 -22 -30 -57 -25 -59 9 -1 15 4 24 12 24 8 0 14 5 14 10 0 6 5 10 10 10
6 0 10 -7 10 -15z m650 5 c0 -5 6 -10 14 -10 8 0 14 -10 14 -24 0 -17 -7 -25
-24 -29 -13 -2 -24 0 -24 6 0 5 -8 16 -17 23 -17 13 -17 13 0 14 9 0 17 7 17
15 0 8 5 15 10 15 6 0 10 -4 10 -10z m-580 -70 c0 -5 7 -10 16 -10 11 0 14 -5
10 -16 -3 -9 -6 -19 -6 -24 0 -4 -11 -7 -25 -7 -15 0 -25 5 -25 13 0 8 -4 14
-10 14 -5 0 -10 5 -10 10 0 6 7 10 15 10 8 0 15 5 15 10 0 6 5 10 10 10 6 0
10 -4 10 -10z m510 0 c0 -5 7 -10 15 -10 8 0 15 -4 15 -10 0 -5 -4 -10 -10
-10 -5 0 -10 -6 -10 -14 0 -8 -10 -13 -25 -13 -14 0 -25 3 -25 7 0 5 -3 15 -6
24 -4 11 -1 16 10 16 9 0 16 5 16 10 0 6 5 10 10 10 6 0 10 -4 10 -10z m-74
-65 c20 -15 -6 -44 -37 -42 -21 2 -26 7 -26 30 0 20 5 27 19 27 10 0 18 6 19
13 0 7 3 6 6 -3 4 -8 12 -19 19 -25z m-319 -14 c0 -22 -4 -27 -19 -23 -11 2
-18 -1 -18 -9 0 -8 -8 -4 -19 10 -17 22 -17 25 -2 40 25 26 58 15 58 -18z m96
-16 c2 -13 -5 -27 -20 -38 -20 -16 -23 -16 -23 -2 0 8 -7 15 -15 15 -8 0 -15
5 -15 10 0 6 5 10 10 10 6 0 10 6 10 14 0 23 48 14 53 -9z m117 9 c0 -8 5 -14
10 -14 6 0 10 -4 10 -10 0 -5 -6 -10 -14 -10 -8 0 -16 -5 -18 -11 -7 -22 -45
11 -41 35 5 24 53 33 53 10z"/>
<path d="M2153 3346 c-65 -21 -128 -62 -167 -107 -160 -187 -100 -463 122
-567 49 -23 70 -27 147 -27 82 0 97 3 157 33 129 63 201 178 201 322 0 197
-145 348 -341 357 -47 2 -93 -3 -119 -11z m67 -39 c20 5 22 4 15 -13 -9 -24
-9 -34 0 -58 7 -17 5 -18 -17 -13 -17 5 -30 2 -38 -8 -18 -22 -30 -18 -30 9 0
16 -7 27 -22 32 -21 6 -21 6 -1 23 11 9 23 24 27 35 6 17 8 17 24 3 11 -10 26
-14 42 -10z m275 -107 c3 -5 14 -10 24 -10 13 0 17 -9 18 -36 1 -28 -2 -34
-14 -29 -9 3 -24 -2 -34 -11 -18 -16 -19 -16 -19 4 0 12 -8 26 -17 32 -17 10
-17 10 0 20 9 6 17 18 17 25 0 17 16 20 25 5z m-481 -130 c13 0 15 -4 6 -19
-7 -13 -7 -22 0 -26 17 -10 11 -28 -6 -21 -10 4 -25 -1 -35 -10 -14 -13 -19
-14 -19 -4 0 7 -8 22 -17 33 -17 18 -17 19 0 28 9 6 17 19 17 31 0 20 1 20 18
5 10 -10 26 -17 36 -17z m377 -14 c9 5 11 1 7 -13 -3 -11 -1 -28 4 -37 7 -13
4 -16 -15 -16 -12 0 -28 -5 -35 -12 -9 -9 -12 -9 -12 2 0 7 -7 22 -16 32 -16
16 -16 18 0 24 9 3 16 15 16 27 0 19 1 19 19 3 11 -10 25 -15 32 -10z m-7
-256 c23 0 27 -3 21 -17 -10 -23 -10 -43 0 -66 7 -16 4 -18 -23 -16 -19 2 -38
-3 -51 -15 -21 -19 -21 -19 -27 12 -4 18 -10 32 -13 32 -4 0 -16 6 -27 14 -18
14 -18 15 9 25 19 7 29 20 34 41 l6 31 21 -21 c12 -11 35 -20 50 -20z"/>
<path d="M1610 3366 c-124 -24 -242 -46 -263 -50 l-38 -7 70 -77 c39 -42 128
-137 198 -211 l128 -133 0 103 c0 57 2 121 5 142 l5 39 -157 51 c-87 28 -158
54 -158 57 0 4 89 21 198 39 245 41 233 38 255 67 23 31 37 32 -243 -20z"/>
<path d="M2690 3348 c27 -35 60 -86 72 -115 12 -29 27 -53 33 -53 6 0 78 23
160 50 82 28 153 50 158 50 5 0 -60 -72 -145 -160 -98 -104 -156 -172 -161
-192 -5 -16 -6 -32 -4 -34 2 -3 93 88 201 202 108 114 194 209 192 211 -3 4
-531 103 -549 103 -4 0 15 -28 43 -62z"/>
<path d="M3113 3172 c-200 -212 -194 -204 -176 -231 8 -13 15 -42 15 -65 -1
-23 7 -55 18 -73 23 -40 41 -103 30 -103 -5 0 -12 16 -16 35 -3 19 -13 39 -22
44 -8 5 -23 24 -31 42 -24 50 -41 49 -41 -3 0 -24 -8 -59 -18 -78 -12 -22 -17
-48 -14 -70 6 -42 5 -71 -4 -127 -3 -24 -1 -57 5 -75 9 -24 8 -36 -2 -52 -8
-12 -13 -30 -11 -41 2 -11 6 -40 9 -65 3 -25 8 -60 11 -77 l6 -33 44 38 c24
20 43 43 44 50 0 16 60 42 95 42 39 0 139 57 145 83 4 13 22 30 43 40 36 17
42 37 12 37 -8 0 -35 10 -59 22 l-45 22 28 17 c16 10 39 38 52 63 12 25 33 56
46 68 13 12 23 25 23 30 0 11 -53 10 -84 -2 -32 -12 -32 -8 -1 38 26 38 32 62
15 62 -11 0 17 64 48 107 13 19 25 54 29 85 3 29 10 61 15 72 16 30 -5 41 -43
22 -41 -20 -39 -21 -30 12 10 33 7 45 -30 129 l-14 31 -92 -96z m19 -413 c-18
-12 -35 -19 -38 -16 -3 3 7 12 23 21 42 23 53 19 15 -5z"/>
<path d="M1363 3198 c20 -32 13 -36 -15 -11 -24 21 -33 9 -43 -53 -4 -29 -12
-43 -24 -47 -15 -4 -18 -12 -15 -47 3 -40 3 -42 -21 -36 -35 9 -38 -6 -15 -76
26 -77 75 -131 141 -154 26 -10 45 -22 42 -26 -3 -5 -11 -7 -19 -4 -11 4 -14
-5 -14 -39 0 -25 -2 -45 -5 -45 -3 0 -22 7 -42 15 -55 23 -63 20 -52 -17 5
-18 19 -54 32 -79 l23 -46 -28 -16 c-16 -9 -28 -20 -28 -26 0 -17 85 -80 127
-95 26 -9 64 -13 107 -10 63 5 67 4 62 -14 -4 -11 0 -24 9 -32 14 -11 14 -14
-1 -25 -20 -14 -10 -36 33 -78 l30 -28 1 38 c1 21 6 63 11 93 6 39 6 57 -3 63
-8 5 -8 9 2 15 14 9 14 10 33 147 16 114 15 150 -6 200 l-16 40 -16 -29 -16
-30 -19 37 c-20 40 -27 44 -47 25 -7 -7 -2 4 12 25 41 60 43 92 11 130 -15 17
-29 31 -33 29 -3 -2 -8 3 -11 11 -3 8 -50 61 -105 118 -54 57 -91 92 -82 77z
m191 -423 c-4 -8 -10 -12 -15 -9 -11 6 -2 24 11 24 5 0 7 -7 4 -15z m-37 -91
c-3 -3 -12 -4 -19 -1 -8 3 -5 6 6 6 11 1 17 -2 13 -5z"/>
<path d="M1708 2488 c-21 -155 -36 -284 -33 -286 2 -3 121 51 264 119 l259
124 -66 13 c-37 8 -98 30 -135 49 -39 21 -71 32 -76 27 -4 -5 -49 -67 -100
-137 -52 -70 -95 -126 -97 -124 -3 2 9 98 26 212 31 208 32 235 8 268 -11 15
-19 -25 -50 -265z"/>
<path d="M2736 2721 c-15 -29 -54 -80 -86 -114 -33 -33 -56 -65 -53 -71 4 -6
49 -68 100 -138 51 -70 93 -130 93 -133 0 -3 -90 40 -199 95 -184 92 -202 99
-239 92 -40 -7 -37 -8 219 -131 143 -68 262 -121 265 -119 4 4 -57 498 -69
558 -2 8 -16 -9 -31 -39z"/>
<path d="M1095 2397 c-4 -9 -4 -32 0 -50 3 -17 9 -52 12 -77 3 -25 9 -49 14
-54 5 -6 9 -14 9 -19 0 -5 -18 6 -40 24 -22 19 -58 49 -80 68 -22 19 -43 31
-46 28 -8 -8 39 -89 61 -107 9 -8 25 -31 36 -51 10 -21 27 -44 36 -51 10 -7
36 -35 57 -61 124 -155 375 -317 611 -396 238 -79 262 -74 280 60 l6 46 62
-10 c34 -5 126 -6 204 -3 l142 5 11 -57 c15 -79 17 -81 42 -91 48 -18 289 58
453 142 55 28 144 84 197 125 94 70 269 246 295 297 7 13 23 35 36 49 28 31
62 94 54 102 -3 3 -22 -10 -42 -30 -19 -20 -42 -36 -49 -36 -8 0 -21 -11 -30
-25 -19 -29 -42 -34 -30 -7 4 9 7 28 6 42 -1 14 5 42 13 62 11 29 12 44 4 65
l-12 28 -8 -31 c-5 -17 -16 -37 -24 -44 -8 -7 -20 -30 -25 -51 -7 -26 -24 -49
-50 -70 -22 -18 -40 -38 -40 -44 0 -35 -241 -235 -350 -290 l-35 -18 20 23
c11 13 52 47 91 76 104 77 144 118 144 145 0 23 -98 139 -117 139 -16 0 -38
-23 -97 -97 -68 -85 -101 -110 -122 -92 -13 10 -9 17 22 43 21 17 47 33 58 36
12 3 21 12 21 20 0 19 -23 24 -27 5 -2 -12 -22 -6 -103 33 -201 97 -210 101
-213 86 -5 -20 -12 -18 -47 15 -41 40 -101 56 -132 36 -13 -9 -23 -22 -23 -31
0 -8 -5 -25 -12 -37 -11 -21 -11 -21 -19 -2 -4 12 -8 -15 -8 -67 l-1 -88 -55
0 -55 0 -1 93 c-1 50 -4 82 -6 69 -6 -33 -23 -16 -23 23 0 64 -77 69 -154 10
-21 -16 -36 -21 -47 -15 -10 6 -52 -9 -138 -51 -67 -32 -127 -59 -132 -59 -15
0 -10 -26 9 -42 9 -9 34 -25 55 -36 36 -19 37 -21 19 -31 -11 -6 -28 -18 -37
-27 -15 -15 -20 -12 -68 37 -29 30 -69 72 -88 95 -37 42 -77 74 -92 74 -13 0
-97 -92 -108 -117 -15 -39 6 -68 93 -131 105 -77 160 -123 154 -130 -9 -8
-142 75 -218 137 -40 32 -93 82 -118 110 -25 29 -64 71 -87 94 -23 23 -45 56
-49 72 -4 17 -17 44 -30 60 -12 17 -24 39 -26 50 -5 18 -6 19 -13 2z m1035
-162 c10 -12 8 -21 -9 -48 -20 -32 -20 -35 -3 -49 9 -9 26 -18 38 -22 16 -5
20 -12 16 -36 -2 -17 -7 -30 -11 -30 -12 0 -124 21 -143 26 -16 5 -18 -2 -18
-52 l0 -57 38 7 c20 4 58 9 85 13 46 6 47 5 47 -21 l0 -26 85 0 85 0 0 26 c0
27 0 27 58 21 31 -4 67 -10 80 -13 21 -6 22 -4 22 51 0 49 -2 56 -17 51 -10
-3 -36 -8 -58 -11 -22 -3 -50 -8 -61 -10 -18 -4 -23 1 -26 25 -3 22 -1 30 11
30 8 0 25 10 38 21 22 21 22 23 5 51 -13 22 -14 32 -5 46 13 20 51 18 73 -3
12 -13 11 -20 -8 -57 -12 -24 -29 -53 -38 -65 l-16 -22 49 14 c26 7 56 16 66
20 15 6 17 1 17 -42 l0 -48 54 -13 c40 -9 61 -10 82 -1 54 21 84 28 89 20 2
-5 -35 -25 -83 -45 -247 -102 -494 -112 -746 -28 l-111 36 70 6 c39 3 75 9 80
12 6 3 10 29 9 57 -1 28 2 51 6 51 4 0 25 -6 46 -13 22 -8 51 -17 66 -20 l26
-7 -34 70 c-39 81 -40 87 -16 93 33 9 50 7 62 -8z m-219 -36 c8 -16 6 -19 -10
-19 -17 0 -41 26 -41 43 0 13 42 -8 51 -24z m-371 -89 c0 -6 4 -10 9 -10 14 0
91 -53 91 -62 0 -5 4 -7 9 -3 19 11 22 -15 6 -46 -9 -17 -15 -33 -13 -35 2 -2
12 12 23 31 17 33 35 46 35 26 0 -5 11 -12 25 -15 28 -7 30 -18 14 -65 -9 -27
-16 -32 -38 -29 -21 2 -25 8 -23 28 2 19 0 22 -10 12 -16 -16 -47 -15 -54 2
-3 8 -1 24 6 35 9 19 8 21 -14 21 -14 0 -29 -7 -34 -16 -6 -12 -11 -13 -16 -5
-4 6 2 27 13 45 19 31 20 34 5 40 -9 4 -20 3 -23 0 -3 -4 0 -9 7 -11 6 -3 10
-9 7 -13 -3 -5 -12 -7 -20 -3 -17 6 -20 -8 -4 -24 16 -16 -5 -24 -26 -9 -16
12 -16 14 0 47 l17 34 -25 -30 c-14 -16 -29 -27 -33 -22 -4 4 -2 13 4 19 7 7
12 17 12 23 0 5 -7 2 -15 -9 -7 -10 -19 -15 -25 -11 -7 4 1 21 21 46 26 33 34
37 50 29 10 -6 19 -15 19 -20z m1480 -10 c13 -18 26 -27 35 -23 20 7 19 -11 0
-27 -13 -11 -21 -7 -49 26 -32 36 -37 54 -16 54 5 0 18 -13 30 -30z m-21 -27
c41 -49 26 -67 -16 -18 -18 21 -33 42 -33 47 0 18 20 6 49 -29z m-1709 17 c12
-8 9 -15 -20 -45 -18 -19 -38 -35 -42 -35 -15 0 -8 27 12 45 11 10 20 24 20
32 0 15 9 16 30 3z m1668 -20 c3 -9 -1 -11 -12 -7 -9 4 -16 2 -16 -3 0 -6 11
-10 25 -10 29 0 50 -31 33 -48 -7 -7 -20 -12 -30 -12 -10 0 -17 -6 -15 -12 1
-7 -6 -12 -15 -10 -11 2 -18 -3 -18 -13 0 -30 -19 -14 -36 30 -13 35 -14 49
-6 57 9 9 19 5 42 -17 16 -16 30 -23 30 -16 0 8 6 11 18 6 11 -4 13 -3 7 3 -5
6 -19 12 -30 14 -24 4 -33 37 -13 49 16 11 30 7 36 -11z m-655 -30 c19 0 19
-1 3 -19 -12 -13 -15 -27 -11 -42 6 -19 5 -21 -11 -14 -11 4 -23 7 -29 7 -5 0
-18 -3 -29 -7 -16 -7 -17 -5 -11 14 4 15 1 29 -11 42 -16 18 -16 19 4 19 12 0
27 10 33 22 l12 22 15 -22 c8 -12 24 -22 35 -22z m-980 -36 c-14 -19 -31 -34
-38 -34 -17 0 -38 27 -30 40 10 16 25 12 25 -7 0 -15 2 -16 10 -3 6 9 5 17 -3
22 -8 5 -6 13 8 27 17 20 20 20 36 5 17 -16 17 -18 -8 -50z m1541 -27 c21 -40
13 -64 -10 -32 -15 19 -15 18 -8 -9 5 -21 4 -28 -6 -24 -8 2 -22 -4 -32 -14
-26 -26 -36 -20 -58 30 -19 41 -19 42 1 53 15 8 24 7 37 -3 13 -11 14 -11 7 1
-5 9 -2 19 11 28 25 18 36 13 58 -30z m-1445 4 c2 -1 -4 -10 -13 -20 -17 -19
-17 -19 1 -15 27 7 50 -21 33 -41 -9 -11 -16 -12 -25 -5 -9 8 -15 8 -20 0 -4
-6 -1 -9 6 -8 6 2 14 -3 16 -9 3 -8 -4 -13 -16 -13 -27 0 -37 25 -20 48 13 16
12 16 -6 0 -17 -14 -23 -15 -39 -3 -18 14 -16 24 11 57 13 14 29 16 72 9z
m356 -48 c-12 -29 -13 -38 -3 -44 9 -6 17 3 26 26 8 19 19 35 24 35 10 0 6
-28 -12 -74 -9 -24 -10 -25 -42 -9 -18 9 -34 17 -36 18 -8 6 39 95 48 90 6 -4
4 -19 -5 -42z m941 -19 c8 -20 13 -43 10 -50 -7 -17 -53 -18 -59 -1 -3 6 -6 2
-6 -10 -1 -13 -8 -24 -16 -24 -8 -1 -20 -2 -26 -3 -7 -1 -18 18 -25 42 -12 42
-11 44 13 55 19 8 26 8 32 -2 6 -9 10 -7 14 8 9 35 46 27 63 -15z m-828 -1 c2
-13 -1 -23 -7 -23 -6 0 -11 8 -11 17 0 22 -15 6 -25 -25 -6 -21 -4 -23 15 -17
16 5 21 3 18 -6 -7 -20 -47 -23 -54 -5 -3 8 0 31 6 51 9 29 16 35 33 33 14 -2
23 -11 25 -25z m-376 -24 c-2 -21 -1 -22 8 -6 15 23 33 12 20 -13 -8 -15 -7
-17 11 -13 15 4 22 0 26 -17 4 -16 8 -18 14 -8 8 11 10 11 18 0 4 -8 12 -14
17 -15 5 -1 8 -5 7 -8 -1 -4 7 -5 18 -2 15 4 22 0 26 -17 3 -12 9 -17 12 -11
10 16 81 -9 82 -28 0 -10 4 -8 9 7 5 12 14 22 21 22 6 0 9 -7 5 -15 -3 -9 0
-15 9 -15 8 0 15 -4 15 -9 0 -5 9 -7 20 -4 11 3 20 1 20 -5 0 -6 9 -8 21 -5
27 7 39 -12 30 -46 -6 -19 -14 -26 -32 -26 -20 0 -24 4 -21 28 3 34 -14 36
-22 2 -10 -38 -29 -31 -22 8 l6 32 -11 -28 c-7 -19 -16 -26 -26 -23 -8 3 -19
6 -25 6 -6 0 -8 12 -4 28 5 25 5 26 -6 5 -15 -32 -31 -29 -24 5 5 25 5 26 -6
5 -15 -32 -31 -29 -24 5 5 25 5 26 -6 5 -15 -31 -32 -29 -24 2 4 14 2 25 -4
25 -5 0 -9 -6 -7 -12 1 -7 -9 -14 -22 -16 -21 -3 -23 -1 -19 29 l5 33 -18 -23
c-23 -28 -41 -19 -33 17 4 23 3 24 -6 10 -12 -19 -45 -24 -55 -8 -3 5 -1 20 5
32 10 21 10 21 -9 -2 -18 -22 -20 -23 -26 -7 -4 9 -4 25 -1 35 5 15 4 15 -8
-2 -28 -35 -36 -11 -10 32 27 46 51 51 46 11z m430 -24 c-5 -58 -10 -67 -24
-41 -8 15 -12 16 -19 5 -18 -29 -21 3 -4 46 12 33 22 45 34 43 13 -3 15 -13
13 -53z m1108 20 c24 -39 21 -65 -8 -65 -23 0 -58 60 -49 84 10 26 34 18 57
-19z m-1018 0 c-2 -5 -8 -9 -13 -7 -12 3 -11 -15 1 -23 6 -3 10 -11 10 -16 0
-6 -5 -7 -11 -4 -6 4 -13 -2 -16 -14 -3 -12 -9 -21 -14 -21 -11 0 -11 25 -3
69 5 25 11 31 28 29 11 -2 19 -7 18 -13z m523 -22 c17 -41 12 -80 -6 -53 -8
11 -12 12 -16 3 -11 -29 -23 -10 -23 37 0 62 22 68 45 13z m-407 11 c6 -2 13
-14 13 -26 l2 -23 4 23 c4 20 10 22 59 22 l54 0 0 -50 c0 -49 -19 -73 -21 -27
-2 21 -2 21 -6 1 -3 -18 -12 -22 -49 -22 -41 -1 -44 0 -45 26 -2 25 -2 25 -6
4 -4 -22 -8 -23 -61 -18 -31 3 -58 5 -60 6 -3 0 7 67 14 88 3 11 59 10 102 -4z
m312 -6 l9 -23 0 23 c2 46 21 20 21 -28 0 -64 -22 -67 -44 -7 l-16 42 4 -47
c3 -36 0 -48 -10 -48 -10 0 -14 13 -14 40 0 22 -4 40 -10 40 -5 0 -10 -18 -10
-39 0 -52 -17 -62 -22 -13 -3 20 -8 45 -12 54 -7 14 0 17 41 21 26 2 49 4 51
5 1 1 7 -8 12 -20z m534 -14 c13 -20 22 -43 19 -50 -8 -21 -39 -17 -57 9 l-17
22 11 -23 c14 -29 6 -52 -18 -52 -11 0 -24 14 -35 37 -14 33 -15 40 -2 52 12
12 16 12 31 0 15 -12 17 -12 9 0 -5 9 -2 19 10 28 24 17 20 19 49 -23z m-649
-16 c4 -18 9 -41 11 -50 6 -21 -21 -25 -30 -5 -5 10 -7 10 -12 0 -3 -7 -10
-13 -15 -13 -9 0 -5 51 6 88 8 24 33 12 40 -20z m538 -50 c11 -26 14 -45 8
-51 -6 -6 -15 4 -25 27 -8 20 -20 36 -27 36 -8 0 -8 4 1 15 18 22 23 19 43
-27z m-143 -25 c0 -14 2 -14 20 2 19 17 22 17 37 2 14 -13 14 -19 3 -32 -7 -8
-10 -18 -6 -22 3 -3 6 -1 6 5 0 7 5 12 10 12 16 0 11 -27 -6 -34 -9 -4 -23 -1
-30 5 -11 9 -14 8 -14 -4 0 -9 -9 -19 -21 -22 -24 -8 -23 -9 -37 33 -9 27 -9
34 3 39 8 3 15 11 15 19 0 8 5 14 10 14 6 0 10 -7 10 -17z"/>
<path d="M1600 2029 c0 -5 5 -7 10 -4 6 3 10 8 10 11 0 2 -4 4 -10 4 -5 0 -10
-5 -10 -11z"/>
<path d="M2800 1951 c0 -6 4 -13 10 -16 6 -3 7 1 4 9 -7 18 -14 21 -14 7z"/>
<path d="M2780 1920 c0 -5 5 -10 11 -10 5 0 7 5 4 10 -3 6 -8 10 -11 10 -2 0
-4 -4 -4 -10z"/>
<path d="M1360 1955 c-7 -9 -11 -17 -9 -20 3 -2 10 5 17 15 14 24 10 26 -8 5z"/>
<path d="M2682 1899 c6 -16 12 -28 15 -26 7 7 -8 57 -18 57 -4 0 -3 -14 3 -31z"/>
<path d="M2617 1885 c6 -32 11 -41 17 -34 2 2 -2 18 -10 34 l-13 30 6 -30z"/>
<path d="M1546 1825 c-9 -26 -7 -32 5 -12 6 10 9 21 6 23 -2 3 -7 -2 -11 -11z"/>
<path d="M1793 1725 c-3 -9 -3 -18 -1 -21 3 -3 8 4 11 16 6 23 -1 27 -10 5z"/>
<path d="M1888 1687 c-3 -19 -2 -25 4 -19 6 6 8 18 6 28 -3 14 -5 12 -10 -9z"/>
<path d="M3010 1891 c0 -6 4 -13 10 -16 6 -3 7 1 4 9 -7 18 -14 21 -14 7z"/>
<path d="M2065 1862 c-3 -3 3 -11 13 -18 16 -13 16 -13 0 -14 -21 0 -25 -30
-4 -30 15 0 26 21 26 49 0 16 -23 25 -35 13z"/>
<path d="M2122 1830 c0 -19 2 -27 5 -17 2 9 2 25 0 35 -3 9 -5 1 -5 -18z"/>
<path d="M2190 1841 c0 -5 6 -12 13 -15 10 -5 10 -7 0 -12 -18 -8 -16 -24 2
-24 10 0 15 10 15 30 0 20 -5 30 -15 30 -8 0 -15 -4 -15 -9z"/>
<path d="M2721 1730 c0 -8 4 -22 9 -30 12 -18 12 -2 0 25 -6 13 -9 15 -9 5z"/>
<path d="M2192 2365 c0 -16 2 -22 5 -12 2 9 2 23 0 30 -3 6 -5 -1 -5 -18z"/>
<path d="M2312 2355 c0 -16 2 -22 5 -12 2 9 2 23 0 30 -3 6 -5 -1 -5 -18z"/>
<path d="M776 1923 c-20 -120 -39 -219 -40 -221 -2 -2 -64 -8 -137 -13 -74 -6
-135 -11 -136 -13 -7 -6 148 -275 223 -388 l84 -127 0 -90 c0 -123 10 -133
190 -200 269 -99 560 -165 870 -196 212 -22 779 -16 960 9 257 37 475 88 694
163 252 86 266 99 266 242 l0 82 54 77 c92 133 254 417 244 427 -3 3 -62 9
-132 14 -76 5 -131 13 -135 20 -4 6 -20 84 -35 174 -15 89 -33 184 -38 211
l-10 49 -52 -99 c-54 -104 -88 -157 -168 -263 l-48 -64 0 -118 0 -117 -67 -20
c-324 -98 -612 -141 -1003 -149 -451 -10 -807 32 -1172 138 l-108 32 0 119 0
120 -60 82 c-73 100 -151 230 -176 291 -11 25 -22 45 -25 45 -3 0 -22 -98 -43
-217z m324 -555 l130 -42 0 -42 0 -43 -72 25 c-39 13 -75 24 -80 24 -5 0 -8
-19 -6 -41 l3 -42 75 -26 c74 -26 75 -26 78 -63 4 -45 -1 -46 -83 -18 -32 11
-62 20 -67 20 -4 0 -8 -36 -8 -81 l0 -81 -27 7 c-15 3 -42 13 -60 20 l-33 14
0 205 c0 132 4 206 10 206 6 0 69 -19 140 -42z m2280 -183 c0 -91 4 -165 8
-165 5 0 42 11 82 25 40 14 77 25 82 25 5 0 8 -19 6 -42 l-3 -43 -130 -42
c-71 -24 -136 -43 -142 -43 -10 0 -13 48 -13 208 l0 208 48 16 c26 9 50 17 55
17 4 1 7 -73 7 -164z m-1917 85 l97 -22 0 -39 c0 -45 -3 -46 -95 -24 -92 22
-97 21 -93 -22 l3 -38 88 -19 87 -19 0 -43 0 -42 -62 14 c-130 31 -120 33
-116 -17 l3 -44 98 -23 97 -24 0 -39 c0 -21 -5 -39 -11 -39 -11 0 -207 44
-271 61 l-38 10 0 203 c0 111 3 205 6 208 3 3 29 0 57 -7 29 -7 96 -23 150
-35z m1703 -182 c43 -100 79 -186 79 -191 0 -10 -77 -37 -106 -37 -10 0 -23
16 -33 41 -9 22 -20 38 -24 36 -4 -3 -39 -10 -79 -17 l-72 -12 -16 -48 -16
-48 -104 -16 c-57 -9 -108 -16 -114 -16 -5 0 -19 29 -31 65 -21 65 -48 95 -82
95 -15 0 -18 -12 -20 -82 l-3 -83 -63 -3 -62 -3 2 208 3 208 115 8 c140 10
174 4 213 -34 26 -26 29 -35 24 -72 -4 -30 -15 -50 -36 -69 l-30 -27 23 -43
c13 -24 29 -61 36 -82 16 -49 13 -54 95 170 35 98 69 186 73 194 7 12 76 31
138 39 5 0 46 -81 90 -181z m-1336 120 c143 -28 207 -106 198 -244 -4 -68 -21
-100 -71 -138 -33 -24 -116 -31 -252 -21 l-95 7 0 210 0 211 83 -7 c45 -4 107
-12 137 -18z m530 -63 l0 -45 -85 0 -85 0 0 -40 0 -40 80 0 80 0 0 -40 0 -40
-80 0 -80 0 0 -45 0 -45 90 0 90 0 0 -40 0 -40 -150 0 -150 0 0 210 0 210 145
0 145 0 0 -45z"/>
<path d="M3005 1138 c-3 -7 -13 -42 -24 -77 l-20 -63 47 7 c26 4 49 8 51 10 4
5 -39 135 -45 135 -3 0 -7 -6 -9 -12z"/>
<path d="M2550 1065 c0 -41 2 -45 24 -45 39 0 74 17 81 40 10 32 -12 50 -61
50 l-44 0 0 -45z"/>
<path d="M1730 1011 l0 -118 32 -7 c47 -9 93 3 119 30 30 31 32 115 5 156 -22
33 -73 58 -120 58 l-36 0 0 -119z"/>
</g>
</svg>
